<svg width="798" height="627" viewBox="0 0 798 627" fill="none" xmlns="http://www.w3.org/2000/svg">
<g filter="url(#filter0_d)">
<rect x="10" y="3" width="778" height="607" rx="20" fill="white"/>
</g>
<rect x="48" y="30" width="124" height="12" rx="6" fill="#D0D0D0"/>
<rect x="49" y="549" width="124" height="12" rx="6" fill="#D0D0D0"/>
<rect x="48" y="528" width="167" height="12" rx="6" fill="#7B7FA0"/>
<rect x="293" y="549" width="178" height="12" rx="6" fill="#D0D0D0"/>
<rect x="292" y="528" width="125" height="12" rx="6" fill="#7B7FA0"/>
<rect x="541" y="549" width="160" height="12" rx="6" fill="#D0D0D0"/>
<rect x="540" y="528" width="148" height="12" rx="6" fill="#7B7FA0"/>
<rect x="49" y="72" width="700" height="200" rx="10" fill="#E7E7E7"/>
<rect x="49" y="314" width="209" height="200" rx="10" fill="#E7E7E7"/>
<rect x="540" y="314" width="209" height="200" rx="10" fill="#E7E7E7"/>
<rect x="294" y="314" width="209" height="200" rx="10" fill="#E7E7E7"/>
<defs>
<filter id="filter0_d" x="0" y="0" width="798" height="627" filterUnits="userSpaceOnUse" color-interpolation-filters="sRGB">
<feFlood flood-opacity="0" result="BackgroundImageFix"/>
<feColorMatrix in="SourceAlpha" type="matrix" values="0 0 0 0 0 0 0 0 0 0 0 0 0 0 0 0 0 0 127 0" result="hardAlpha"/>
<feOffset dy="7"/>
<feGaussianBlur stdDeviation="5"/>
<feComposite in2="hardAlpha" operator="out"/>
<feColorMatrix type="matrix" values="0 0 0 0 0 0 0 0 0 0 0 0 0 0 0 0 0 0 0.1 0"/>
<feBlend mode="normal" in2="BackgroundImageFix" result="effect1_dropShadow"/>
<feBlend mode="normal" in="SourceGraphic" in2="effect1_dropShadow" result="shape"/>
</filter>
</defs>
</svg>
