<svg width="1319" height="717" viewBox="0 0 1319 717" fill="none" xmlns="http://www.w3.org/2000/svg">
<g filter="url(#filter0_d)">
<rect x="275" y="3" width="778" height="616" rx="20" fill="white"/>
</g>
<rect x="313" y="30" width="124" height="12" rx="6" fill="#D0D0D0"/>
<rect x="313" y="309" width="124" height="12" rx="6" fill="#D0D0D0"/>
<rect x="312" y="288" width="167" height="12" rx="6" fill="#7B7FA0"/>
<rect x="313" y="74" width="209" height="200" rx="10" fill="#E7E7E7"/>
<rect x="327" y="86" width="44" height="16" rx="8" fill="#F28ABC"/>
<rect x="807" y="306" width="124" height="12" rx="6" fill="#D0D0D0"/>
<rect x="806" y="285" width="167" height="12" rx="6" fill="#7B7FA0"/>
<rect x="807" y="71" width="209" height="200" rx="10" fill="#E7E7E7"/>
<rect x="821" y="83" width="44" height="16" rx="8" fill="#F28ABC"/>
<rect x="560" y="306" width="124" height="12" rx="6" fill="#D0D0D0"/>
<rect x="559" y="285" width="167" height="12" rx="6" fill="#7B7FA0"/>
<rect x="560" y="71" width="209" height="200" rx="10" fill="#E7E7E7"/>
<rect x="574" y="83" width="44" height="16" rx="8" fill="#F28ABC"/>
<rect x="313" y="353" width="209" height="200" rx="10" fill="#E7E7E7"/>
<rect x="327" y="365" width="44" height="16" rx="8" fill="#F28ABC"/>
<g filter="url(#filter1_d)">
<rect x="10" y="102" width="365" height="486" rx="20" fill="white"/>
</g>
<rect x="28" y="129" width="222" height="12" rx="6" fill="#D0D0D0"/>
<rect x="28" y="171" width="329" height="193" rx="10" fill="#C5F1FF"/>
<rect x="28" y="509" width="329" height="63" rx="30" fill="#5E67BA"/>
<rect x="28" y="411" width="329" height="12" rx="6" fill="#D0D0D0"/>
<rect x="28" y="440" width="329" height="12" rx="6" fill="#D0D0D0"/>
<rect x="28" y="380" width="222" height="12" rx="6" fill="#7B7FA0"/>
<g filter="url(#filter2_d)">
<rect x="944" y="417" width="365" height="283" rx="20" fill="white"/>
</g>
<rect x="962" y="444" width="222" height="12" rx="6" fill="#D0D0D0"/>
<rect x="962" y="655" width="58.1748" height="12" rx="6" fill="#D0D0D0"/>
<rect x="962" y="634" width="122" height="12" rx="6" fill="#7B7FA0"/>
<rect x="962" y="486" width="153" height="131" rx="10" fill="#C5F1FF"/>
<rect x="1138" y="655" width="58.1748" height="12" rx="6" fill="#D0D0D0"/>
<rect x="1138" y="634" width="122" height="12" rx="6" fill="#7B7FA0"/>
<rect x="1138" y="486" width="153" height="131" rx="10" fill="#C5F1FF"/>
<defs>
<filter id="filter0_d" x="265" y="0" width="798" height="636" filterUnits="userSpaceOnUse" color-interpolation-filters="sRGB">
<feFlood flood-opacity="0" result="BackgroundImageFix"/>
<feColorMatrix in="SourceAlpha" type="matrix" values="0 0 0 0 0 0 0 0 0 0 0 0 0 0 0 0 0 0 127 0" result="hardAlpha"/>
<feOffset dy="7"/>
<feGaussianBlur stdDeviation="5"/>
<feComposite in2="hardAlpha" operator="out"/>
<feColorMatrix type="matrix" values="0 0 0 0 0 0 0 0 0 0 0 0 0 0 0 0 0 0 0.1 0"/>
<feBlend mode="normal" in2="BackgroundImageFix" result="effect1_dropShadow"/>
<feBlend mode="normal" in="SourceGraphic" in2="effect1_dropShadow" result="shape"/>
</filter>
<filter id="filter1_d" x="0" y="99" width="385" height="506" filterUnits="userSpaceOnUse" color-interpolation-filters="sRGB">
<feFlood flood-opacity="0" result="BackgroundImageFix"/>
<feColorMatrix in="SourceAlpha" type="matrix" values="0 0 0 0 0 0 0 0 0 0 0 0 0 0 0 0 0 0 127 0" result="hardAlpha"/>
<feOffset dy="7"/>
<feGaussianBlur stdDeviation="5"/>
<feComposite in2="hardAlpha" operator="out"/>
<feColorMatrix type="matrix" values="0 0 0 0 0 0 0 0 0 0 0 0 0 0 0 0 0 0 0.1 0"/>
<feBlend mode="normal" in2="BackgroundImageFix" result="effect1_dropShadow"/>
<feBlend mode="normal" in="SourceGraphic" in2="effect1_dropShadow" result="shape"/>
</filter>
<filter id="filter2_d" x="934" y="414" width="385" height="303" filterUnits="userSpaceOnUse" color-interpolation-filters="sRGB">
<feFlood flood-opacity="0" result="BackgroundImageFix"/>
<feColorMatrix in="SourceAlpha" type="matrix" values="0 0 0 0 0 0 0 0 0 0 0 0 0 0 0 0 0 0 127 0" result="hardAlpha"/>
<feOffset dy="7"/>
<feGaussianBlur stdDeviation="5"/>
<feComposite in2="hardAlpha" operator="out"/>
<feColorMatrix type="matrix" values="0 0 0 0 0 0 0 0 0 0 0 0 0 0 0 0 0 0 0.1 0"/>
<feBlend mode="normal" in2="BackgroundImageFix" result="effect1_dropShadow"/>
<feBlend mode="normal" in="SourceGraphic" in2="effect1_dropShadow" result="shape"/>
</filter>
</defs>
</svg>
