<svg width="240" height="240" viewBox="0 0 240 240" fill="none" xmlns="http://www.w3.org/2000/svg">
<g clip-path="url(#clip0)">
<path d="M94.7662 213.263C43.2868 199.47 12.7366 146.555 26.5304 95.0756C40.3243 43.5961 99.2024 29.6553 154.574 25.3395C206.054 39.1334 226.748 93.5482 212.954 145.028C199.16 196.507 139.566 239.761 94.7662 213.263Z" fill="#FFDEFA"/>
<g clip-path="url(#clip1)">
<path d="M91.4117 114.654L174.412 101.654V176.654H78.4117L91.4117 114.654Z" fill="white"/>
<path d="M185.567 91.06L126.994 67.652C126.305 67.381 125.518 67.381 124.829 67.652L66.2567 91.06C65.1497 91.5035 64.4117 92.5877 64.4117 93.7704V102.345C64.4117 103.971 65.7155 105.277 67.3391 105.277H74.7683V174.146C74.7683 175.772 76.0721 177.078 77.6957 177.078H91.7423C93.3659 177.078 94.6697 175.772 94.6697 174.146C94.6697 172.52 93.3659 171.214 91.7423 171.214H80.6231V105.277H148.544C150.167 105.277 151.471 103.971 151.471 102.345C151.471 100.719 150.167 99.413 148.544 99.413H77.6957H70.2665V95.7416L125.912 73.5163L181.557 95.7663V99.4376H174.128C172.504 99.4376 171.2 100.744 171.2 102.37V171.239H163.009V116.291C163.009 114.665 161.705 113.359 160.081 113.359H91.7423C90.1187 113.359 88.8149 114.665 88.8149 116.291V159.781C88.8149 161.407 90.1187 162.713 91.7423 162.713C93.3659 162.713 94.6697 161.407 94.6697 159.781V133.589H157.154V142.287H102.985C101.361 142.287 100.057 143.593 100.057 145.219C100.057 146.845 101.361 148.151 102.985 148.151H157.154V156.849H113.12C111.496 156.849 110.192 158.155 110.192 159.781C110.192 161.407 111.496 162.713 113.12 162.713H157.154V174.171C157.154 175.797 158.458 177.103 160.081 177.103H174.128C175.751 177.103 177.055 175.797 177.055 174.171V105.277H184.484C186.108 105.277 187.412 103.971 187.412 102.345V93.7704C187.412 92.5631 186.674 91.5035 185.567 91.06ZM94.6697 127.749V119.224H157.154V127.749H94.6697Z" fill="#58647A"/>
</g>
</g>
<defs>
<clipPath id="clip0">
<rect width="240" height="240" fill="white"/>
</clipPath>
<clipPath id="clip1">
<rect width="123" height="154" fill="white" transform="translate(64.4117 60.6542)"/>
</clipPath>
</defs>
</svg>
