<svg width="240" height="240" viewBox="0 0 240 240" fill="none" xmlns="http://www.w3.org/2000/svg">
<path d="M217 119.5C217 172.795 173.795 216 120.5 216C67.2045 216 38.5 162.736 20 110.368C20 57.0727 67.2045 23 120.5 23C173.795 23 231 69.3682 217 119.5Z" fill="#FFDF6B"/>
<g clip-path="url(#clip0)">
<rect x="80" y="114.868" width="87" height="51" fill="white"/>
<path d="M178.156 108.993H161.031V91.8932C161.031 81.6889 156.972 71.9027 149.746 64.6872C142.52 57.4718 132.719 53.4182 122.5 53.4182C112.281 53.4182 102.48 57.4718 95.2543 64.6872C88.0283 71.9027 83.9688 81.6889 83.9688 91.8932V108.993H66.8438C65.7083 108.993 64.6193 109.444 63.8164 110.245C63.0136 111.047 62.5625 112.134 62.5625 113.268C62.5625 114.402 63.0136 115.489 63.8164 116.291C64.6193 117.093 65.7083 117.543 66.8438 117.543H71.4247L74.8069 161.276C75.0554 164.505 76.5176 167.519 78.8999 169.716C81.2821 171.912 84.4082 173.128 87.6506 173.118H157.435C160.677 173.128 163.804 171.912 166.186 169.716C168.568 167.519 170.03 164.505 170.279 161.276L173.575 117.543H178.156C179.292 117.543 180.381 117.093 181.184 116.291C181.986 115.489 182.438 114.402 182.438 113.268C182.438 112.134 181.986 111.047 181.184 110.245C180.381 109.444 179.292 108.993 178.156 108.993ZM92.5312 91.8932C92.5312 83.9565 95.6887 76.345 101.309 70.733C106.929 65.121 114.552 61.9682 122.5 61.9682C130.448 61.9682 138.071 65.121 143.691 70.733C149.311 76.345 152.469 83.9565 152.469 91.8932V108.993H92.5312V91.8932ZM161.631 160.635C161.544 161.709 161.055 162.71 160.262 163.439C159.468 164.168 158.428 164.572 157.349 164.568H87.6078C86.5293 164.572 85.4892 164.168 84.6954 163.439C83.9017 162.71 83.4128 161.709 83.3266 160.635L80.03 117.543H164.97L161.631 160.635Z" fill="#58647A"/>
<path d="M95.9562 126.093C95.3886 126.195 94.8475 126.41 94.3651 126.725C93.8828 127.041 93.4693 127.451 93.1495 127.93C92.8296 128.409 92.61 128.948 92.5037 129.513C92.3975 130.079 92.4068 130.661 92.5312 131.223L96.8125 152.598C97.0126 153.578 97.5507 154.457 98.3329 155.082C99.1152 155.707 100.092 156.038 101.094 156.018H101.95C102.518 155.917 103.059 155.702 103.541 155.386C104.023 155.07 104.437 154.661 104.757 154.182C105.077 153.703 105.296 153.164 105.402 152.598C105.509 152.032 105.499 151.45 105.375 150.888L101.094 129.513C100.992 128.946 100.777 128.406 100.461 127.924C100.144 127.443 99.7343 127.03 99.2545 126.711C98.7747 126.391 98.2352 126.172 97.6684 126.066C97.1017 125.96 96.5193 125.969 95.9562 126.093V126.093Z" fill="#58647A"/>
<path d="M149.044 126.093C148.481 125.969 147.898 125.96 147.332 126.066C146.765 126.172 146.225 126.391 145.745 126.711C145.266 127.03 144.855 127.443 144.539 127.924C144.223 128.406 144.008 128.946 143.906 129.513L139.625 150.888C139.501 151.45 139.491 152.032 139.597 152.598C139.704 153.164 139.923 153.703 140.243 154.182C140.563 154.661 140.977 155.07 141.459 155.386C141.941 155.702 142.482 155.917 143.05 156.018H143.906C144.908 156.038 145.885 155.707 146.667 155.082C147.449 154.457 147.987 153.578 148.187 152.598L152.469 131.223C152.593 130.661 152.602 130.079 152.496 129.513C152.39 128.948 152.17 128.409 151.85 127.93C151.531 127.451 151.117 127.041 150.635 126.725C150.152 126.41 149.611 126.195 149.044 126.093V126.093Z" fill="#58647A"/>
<path d="M122.5 126.093C121.365 126.093 120.276 126.544 119.473 127.345C118.67 128.147 118.219 129.234 118.219 130.368V151.743C118.219 152.877 118.67 153.964 119.473 154.766C120.276 155.568 121.365 156.018 122.5 156.018C123.635 156.018 124.724 155.568 125.527 154.766C126.33 153.964 126.781 152.877 126.781 151.743V130.368C126.781 129.234 126.33 128.147 125.527 127.345C124.724 126.544 123.635 126.093 122.5 126.093Z" fill="#58647A"/>
</g>
<defs>
<clipPath id="clip0">
<rect width="137" height="171" fill="white" transform="translate(54 44.8682)"/>
</clipPath>
</defs>
</svg>
