<svg width="240" height="240" viewBox="0 0 240 240" fill="none" xmlns="http://www.w3.org/2000/svg">
<g clip-path="url(#clip0)">
<path d="M30.7741 157.961C9.89596 108.925 32.7222 52.2485 81.758 31.3703C130.794 10.4921 178.07 48.2538 215.606 89.1891C236.484 138.225 206.4 188.066 157.365 208.945C108.329 229.823 37.532 209.57 30.7741 157.961Z" fill="#DEE5FF"/>
<g clip-path="url(#clip1)">
<rect x="94.4333" y="80.6392" width="47" height="28" fill="white"/>
<path d="M145.333 172.356H94.3289C89.6643 172.356 85.8727 168.278 85.8727 163.264V121.097C85.8816 119.832 85.4485 118.604 84.6476 117.623C83.2506 115.913 82.4928 113.773 82.5037 111.569V78.0206C82.5037 73.0066 86.2984 68.929 90.9599 68.929H148.689C153.354 68.929 157.145 73.0066 157.145 78.0206V111.569C157.156 113.773 156.399 115.913 155.002 117.623C154.207 118.607 153.781 119.835 153.795 121.097V163.264C153.795 168.278 149.997 172.356 145.333 172.356ZM90.9721 72.9304C88.5495 72.9304 86.5771 75.1934 86.5771 77.9779V111.526C86.5688 112.792 87.0018 114.022 87.8022 115.006C89.1995 116.714 89.9574 118.851 89.9461 121.054V163.264C89.9461 166.048 91.9185 168.311 94.3411 168.311H145.333C147.755 168.311 149.728 166.048 149.728 163.264V121.097C149.716 118.893 150.474 116.754 151.871 115.046C152.672 114.063 153.105 112.834 153.097 111.569V78.0206C153.097 75.2361 151.124 72.9731 148.702 72.9731L90.9721 72.9304Z" fill="#58647A"/>
<path d="M143.841 108.428H95.2232C94.1017 108.428 93.1926 107.522 93.1926 106.406V81.6225C93.1926 80.5057 94.1017 79.6004 95.2232 79.6004H143.841C144.962 79.6004 145.872 80.5057 145.872 81.6225V106.403C145.872 106.939 145.659 107.454 145.278 107.834C144.897 108.214 144.38 108.428 143.841 108.428ZM97.2538 104.38H141.81V83.6415H97.2538V104.38Z" fill="#58647A"/>
<path d="M105.061 125.848H99.9827C98.8612 125.848 97.9521 124.943 97.9521 123.826C97.9521 122.71 98.8612 121.804 99.9827 121.804H105.061C106.182 121.804 107.091 122.71 107.091 123.826C107.091 124.943 106.182 125.848 105.061 125.848Z" fill="#58647A"/>
<path d="M124.356 125.848H114.708C113.587 125.848 112.678 124.943 112.678 123.826C112.678 122.71 113.587 121.804 114.708 121.804H124.356C125.477 121.804 126.386 122.71 126.386 123.826C126.386 124.943 125.477 125.848 124.356 125.848Z" fill="#58647A"/>
<path d="M139.094 125.848H134C132.879 125.848 131.97 124.943 131.97 123.826C131.97 122.71 132.879 121.804 134 121.804H139.094C140.215 121.804 141.124 122.71 141.124 123.826C141.124 124.943 140.215 125.848 139.094 125.848Z" fill="#58647A"/>
<path d="M105.061 156.057H99.9827C98.8612 156.057 97.9521 155.152 97.9521 154.035C97.9521 152.918 98.8612 152.013 99.9827 152.013H105.061C106.182 152.013 107.091 152.918 107.091 154.035C107.091 155.152 106.182 156.057 105.061 156.057Z" fill="#58647A"/>
<path d="M124.356 156.057H114.708C113.587 156.057 112.678 155.152 112.678 154.035C112.678 152.918 113.587 152.013 114.708 152.013H124.356C125.477 152.013 126.386 152.918 126.386 154.035C126.386 155.152 125.477 156.057 124.356 156.057Z" fill="#58647A"/>
<path d="M139.094 156.057H134C132.879 156.057 131.97 155.152 131.97 154.035C131.97 152.918 132.879 152.013 134 152.013H139.094C140.215 152.013 141.124 152.918 141.124 154.035C141.124 155.152 140.215 156.057 139.094 156.057Z" fill="#58647A"/>
<path d="M105.061 140.954H99.9827C98.8612 140.954 97.9521 140.049 97.9521 138.932C97.9521 137.815 98.8612 136.91 99.9827 136.91H105.061C106.182 136.91 107.091 137.815 107.091 138.932C107.091 140.049 106.182 140.954 105.061 140.954Z" fill="#58647A"/>
<path d="M124.356 140.954H114.708C113.587 140.954 112.678 140.049 112.678 138.932C112.678 137.815 113.587 136.91 114.708 136.91H124.356C125.477 136.91 126.386 137.815 126.386 138.932C126.386 140.049 125.477 140.954 124.356 140.954Z" fill="#58647A"/>
<path d="M139.094 140.954H134C132.879 140.954 131.97 140.049 131.97 138.932C131.97 137.815 132.879 136.91 134 136.91H139.094C140.215 136.91 141.124 137.815 141.124 138.932C141.124 140.049 140.215 140.954 139.094 140.954Z" fill="#58647A"/>
<path d="M159.727 164.362C158.606 164.362 157.697 163.457 157.697 162.34V120.627C157.697 120.281 157.787 119.941 157.957 119.639L161.268 113.777V77.374C161.268 76.2572 162.177 75.3519 163.299 75.3519C164.42 75.3519 165.329 76.2572 165.329 77.374V114.296C165.329 114.642 165.239 114.982 165.069 115.284L161.758 121.158V162.331C161.76 162.869 161.548 163.385 161.166 163.766C160.785 164.148 160.268 164.362 159.727 164.362Z" fill="#58647A"/>
</g>
</g>
<defs>
<clipPath id="clip0">
<rect width="240" height="240" fill="white"/>
</clipPath>
<clipPath id="clip1">
<rect width="83" height="130" fill="white" transform="translate(82.4333 68.6392)"/>
</clipPath>
</defs>
</svg>
